# xmcd
#
# Track frame offsets:
#	150
#	17913
#	31981
#	49205
#	66856
#
# Disc length: 1136 seconds
#
# Revision: 0
# Processed by: cddbd v1.5.1PL0 Copyright (c) Steve Scherf et al.
# Submitted via: audiograbber 1.83.01
#
DISCID=3e046e05
DTITLE=Goodmans - Homma K‰y
DYEAR=2003
DGENRE=Rock and Roll
TTITLE0=Homma K‰y
TTITLE1=Kieltolaki
TTITLE2=Kulta Ei Syyt‰ Huoleen
TTITLE3=Sen Piru Tiet‰‰
TTITLE4=Kun Ei Rahat Riit‰ - Haistakaa Paska Koko Valtiovalta
EXTD=H‰meenlinnalainen b‰ndi joka jatkaa uraansa uskollisena esikuvalleen Irwin
EXTD=Goodmanille!
EXTT0=
EXTT1=
EXTT2=
EXTT3=
EXTT4=
PLAYORDER=
